# xmcd
#
# Track frame offsets: 
#        150
#        16185
#        34936
#        52258
#        73348
#        89031
#        104060
#        121965
#        142815
#        157537
#        172912
#        189976
#        205103
#        220250
#
# Disc length: 3258 seconds
#
# Revision: 0
# Processed by: cddbd v1.5.2PL0 Copyright (c) Steve Scherf et al.
# Submitted via: ExactAudioCopy v0.95b4
#
DISCID=c40cb80e
DTITLE=เสียงอิสาน - หอบสาดแลน
DYEAR=2006
DGENRE=Country
TTITLE0=หอบสาดแลน
TTITLE1=ขาเดฟเฮฟวี่
TTITLE2=ตั๋วหลวงพ่อจ้างหมอลำ
TTITLE3=ปู่สอนหลาน
TTITLE4=บักหำหล่วง
TTITLE5=สัญญาหลังวัด
TTITLE6=กะเทยชนบท
TTITLE7=คุณลูซี่
TTITLE8=ตลกตกรุ่น
TTITLE9=ชวนสาวเล่นเฮือนน้อย
TTITLE10=เบอร์โทรมรณะ
TTITLE11=ซึ้งใจเจ้าหนี้
TTITLE12=อ้ายคนเกิดคน
TTITLE13=พ่อยงค์รำพัน
EXTD=
EXTT0=
EXTT1=
EXTT2=
EXTT3=
EXTT4=
EXTT5=
EXTT6=
EXTT7=
EXTT8=
EXTT9=
EXTT10=
EXTT11=
EXTT12=
EXTT13=
PLAYORDER=
